<svg version="1" xmlns="http://www.w3.org/2000/svg" width="213.333" height="213.333" viewBox="0 0 160.000000 160.000000"><path d="M73 5.7c-5.7 1-19 5.5-19.7 6.7-.5.7-1.9 2-3.3 2.9-4.2 2.8-11.7 12.7-13.5 17.6-.9 2.5-2.6 6.8-3.8 9.6-1.8 4.4-2 6.9-2 20.4.1 13 .4 15.7 1.7 16.7.9.6 1.4 1.8 1.1 2.5-.2.8.4 4.5 1.4 8.4l1.9 7 .1-8.8c.1-4.8.5-9.5 1-10.5.5-.9 1.6-6.9 2.6-13.2 2.6-18 7.7-26.6 18.5-31.2 9.8-4.2 15.4-5.2 28.6-5.1 12.8.1 13.4.2 20 3.5 10.9 5.3 16.2 13.8 19.9 31.4.9 4.3 1.6 12 1.6 17 0 5.1.4 10.5.8 12 .7 2.5.9 2.2 1.5-3.1.4-3.3 1.2-7.8 1.9-10 .7-2.3 1.2-9.7 1.2-17.5-.1-13.3-.6-16.2-5.3-31.5-2.6-8.4-9.6-15.2-18-17.4-2.3-.7-4.6-2-5.2-3.1-1.6-3.1-10.1-5-20.9-4.9-5.3.1-10.7.4-12.1.6z"/><path d="M56.5 69.7c-5.1 1.1-8.4 2.5-8.8 3.6-.3.9 2.7 1.1 12.5.9 9.1-.2 12.8-.6 12.5-1.5-.6-1.8-12-4-16.2-3zM101.4 69.9c-7.8 2-6.7 2.6 6.1 3.1 7.2.3 13.2.5 13.3.4.2-.1-.8-1-2.2-1.9-2.9-1.9-12.6-2.8-17.2-1.6zM100 78.8c-2.6 2.1-2.1 5.8.8 6.4 5.7 1.2 9.3-3.1 5.2-6.4-1.2-1-2.6-1.8-3-1.8-.4 0-1.8.8-3 1.8zM59.6 79.5c-1.9 2-2 2.6-.3 4.9 1.6 2.2 6.5 1.8 8.1-.7 2.5-3.9-4.3-7.6-7.8-4.2zM38.1 107.6c-.2 3.8 3.8 17.3 6.5 21.9 4.2 7.2 13 15.2 21.4 19.2 7.2 3.5 8 3.7 18 3.7 9.4.1 11.1-.2 16.3-2.6 6.9-3.2 17.6-13.2 21.3-19.7 2.5-4.5 6.4-15.3 6.4-17.9 0-2.2-1.7-.4-2.5 2.5-.8 3.2-5.4 9.7-6.3 8.9-.3-.3-1.3.8-2.3 2.4-1.1 1.7-2.6 3-3.4 3-.8 0-1.5.5-1.5 1.1 0 .8-.6.7-1.7-.2-1.1-1-1.4-1-.9-.1.4.6.4 1.7 0 2.3-.7 1.2-9.4-7.6-9.4-9.6 0-.6-1.2-2.5-2.7-4.3-3.6-4.1-12.3-5.8-19.9-3.8-4.4 1.1-5.2 1.8-8.2 6.7-1.8 2.9-3.8 5.8-4.5 6.4-.8.5-1.9 2-2.6 3.2-1 1.9-1.5 2.1-3.8 1.2-1.5-.6-3.1-1.6-3.5-2.2-.4-.7-1.1-1.2-1.5-1.2-.4 0-2.9-2-5.5-4.4-4.3-4.1-7.7-10.3-9.1-16.6-.5-1.9-.5-1.9-.6.1zm58 13c3.3 3 4 5.8 2.5 10.9-1.2 3.8-1.2 4.5 0 4.5.8 0 1.4.9 1.4 2.1 0 1.1-.4 1.8-.9 1.5-.4-.3-2.3.8-4.2 2.5-2.5 2.2-4.1 2.9-6.1 2.6-1.6-.2-2.8 0-2.8.4 0 1.3-3.9 1.7-5 .4-.6-.7-1.9-1.1-3-.8-1.1.3-2.2-.2-2.9-1.5-.6-1.1-2.1-2.2-3.3-2.5-2.1-.6-2.3-1.1-2.1-7.4.3-13.9 1.6-15 17.1-14.7 5.5.1 7.8.6 9.3 2z"/></svg>